# xmcd CD database file
#
# Track frame offsets:
#	150
#	21246
#	74932
#	113205
#	132635
#	160501
#	183455
#	208314
#	240693
#
# Disc length: 3830 seconds
#
# Revision: 0
# Processed by: cddbd v1.5PL3 Copyright (c) Steve Scherf et al.
# Submitted via: CDex 1.51
#
DISCID=8b0ef409
DTITLE=rake-star - Some Ra
DYEAR=2004
DGENRE=Jazz
TTITLE0=Space is Still the Place pt. III
TTITLE1=Somewhere in Space - Angels and Demons at Play
TTITLE2=Ankh - Spectrum
TTITLE3=And of Six
TTITLE4=I Dream Too Much
TTITLE5=Cobalt - Satellites are Spinning
TTITLE6=Discipline 33
TTITLE7=Journey to Rakestar - Love in Outerspace
TTITLE8=Don't Do - We Travel the Spaceways
EXTD=YEAR: 2004
EXTT0=
EXTT1=
EXTT2=
EXTT3=
EXTT4=
EXTT5=
EXTT6=
EXTT7=
EXTT8=
PLAYORDER=
